<?xml version="1.0" encoding="UTF-8"?>
<svg id="Layer_1" xmlns="http://www.w3.org/2000/svg" version="1.1" viewBox="0 0 121 77">
  <!-- Generator: Adobe Illustrator 29.5.1, SVG Export Plug-In . SVG Version: 2.1.0 Build 141)  -->
  <defs>
    <style>
      .st0 {
        fill: #ffb808;
      }
    </style>
  </defs>
  <polygon class="st0" points="61.36 .88 61.36 .88 61.36 .88 61.36 .88"/>
  <path class="st0" d="M100.36,21.49C87.3,8.44,72.26.88,61.36.88v.03h0v-.03s0,0,0,0c-.13,0-.26.01-.39.01-.13,0-.26-.01-.39-.01-10.9,0-25.94,7.56-39,20.61C3.2,39.87-4.28,62.18,4.87,71.33c2.65,2.65,6.4,3.9,10.84,3.9,10.9,0,25.94-7.56,39-20.61,2.25-2.25,4.34-4.57,6.26-6.91,1.92,2.34,4,4.65,6.26,6.91,13.06,13.06,28.1,20.61,39,20.61,4.44,0,8.19-1.26,10.84-3.9,9.15-9.15,1.67-31.46-16.71-49.84ZM53.46,7.72c1.71-1.71,4.25-2.61,7.51-2.67,3.27.07,5.8.96,7.51,2.67,5.16,5.16,2.8,18.77-7.51,33.17-10.31-14.4-12.67-28.01-7.51-33.17ZM51.77,51.68c-11.78,11.78-25.94,19.39-36.06,19.39-3.46,0-6.12-.9-7.9-2.69-6.45-6.45-1.17-26.08,16.71-43.96,7.51-7.51,15.98-13.32,23.76-16.55-4.25,8.34-.18,22.62,10.06,36.46-1.96,2.45-4.15,4.91-6.57,7.34ZM114.13,68.39c-1.78,1.78-4.44,2.69-7.9,2.69-10.12,0-24.28-7.61-36.06-19.39-2.43-2.43-4.61-4.88-6.57-7.34,10.25-13.85,14.31-28.12,10.06-36.46,7.78,3.23,16.25,9.03,23.76,16.55,17.88,17.88,23.15,37.52,16.71,43.96Z"/>
</svg>